<svg width="28" height="38" viewBox="0 0 28 38" fill="none" xmlns="http://www.w3.org/2000/svg">
<path d="M20.3342 20.1522C21.3404 18.8222 21.9378 17.1669 21.9378 15.3747V6.85581C21.9378 3.07548 18.8623 0 15.082 0H3.55984V4.20048C3.55984 6.329 4.53485 8.23405 6.06175 9.4925V15.3747C6.06175 17.1669 6.65921 18.8222 7.6654 20.1522C3.5326 20.4747 0.268311 23.9432 0.268311 28.1604V38H27.7313V28.1605C27.7313 23.9433 24.467 20.4747 20.3342 20.1522ZM5.7864 4.20048V2.22656H15.082C17.6346 2.22656 19.7113 4.3032 19.7113 6.85581V8.8298H10.4156C7.86304 8.8298 5.7864 6.75309 5.7864 4.20048ZM13.9997 21.0835C10.8504 21.0835 8.28831 18.5226 8.28831 15.3747V10.7185C8.95829 10.9377 9.67338 11.0563 10.4156 11.0563H19.7113V15.3747C19.7113 18.5226 17.1491 21.0835 13.9997 21.0835ZM16.8809 22.7692C16.2296 23.9187 15.2613 25.4017 14 26.7202C12.743 25.4051 11.7742 23.9211 11.1215 22.7704C12.0143 23.1188 12.9851 23.3101 13.9997 23.3101C15.0156 23.31 15.9874 23.1183 16.8809 22.7692ZM25.5048 35.7734H2.49487V28.1605C2.49487 24.9589 5.09683 22.3543 8.29507 22.3543H8.3897C9.03458 23.7089 10.67 26.766 13.2536 29.0991L13.9998 29.7729L14.746 29.099C17.3296 26.7659 18.965 23.7088 19.6099 22.3542H19.7045C22.9028 22.3542 25.5047 24.9589 25.5047 28.1604V35.7734H25.5048Z" fill="#524193"/>
</svg>
