<svg width="38" height="38" viewBox="0 0 38 38" fill="none" xmlns="http://www.w3.org/2000/svg">
<g clip-path="url(#clip0)">
<path d="M32.433 29.0413H27.5184L26.7875 28.3104C27.387 27.4079 27.7091 26.3488 27.7091 25.2407C27.7091 23.7543 27.1302 22.3569 26.0795 21.3051L20.4568 15.6825H11.1322V13.4562H0V26.815H12.2226L22.8124 35.7207L37.9983 35.7201V34.6077C37.9983 31.538 35.5018 29.0413 32.433 29.0413ZM8.90596 24.5884H2.22656V15.6825H8.90596V24.5884ZM23.6236 33.495L13.0338 24.5884H11.1322V17.909H19.5343L24.5044 22.8794C25.1352 23.5102 25.4826 24.3487 25.4826 25.2407C25.4826 25.7478 25.3706 26.2369 25.1576 26.6805L21.1648 22.6877L19.5906 24.2625L26.5958 31.2678H32.433C33.8838 31.2678 35.1217 32.1985 35.5812 33.4944L23.6236 33.495Z" fill="#524193"/>
<path d="M4.45288 20.1356H6.67944V22.3619H4.45288V20.1356Z" fill="#524193"/>
<path d="M37.1137 6.35726L33.9646 3.20847C31.741 0.982778 27.6073 3.26848 25.306 5.56985C22.9956 7.88049 20.7233 12.0092 22.9446 14.2288C22.9446 14.2294 22.9452 14.2294 22.9452 14.2294L26.0934 17.3776C26.7211 18.0038 27.5511 18.2615 28.4342 18.2615C30.3021 18.261 32.6562 17.112 34.7521 15.0162C36.1332 13.635 37.1694 12.0483 37.6689 10.5498C38.2551 8.79083 38.0586 7.30152 37.1137 6.35726ZM24.5186 12.6546C23.6291 11.7631 25.1433 8.88099 26.8802 7.1441C29.2352 4.78881 31.7279 4.12287 32.3907 4.78243C33.2271 5.61913 31.9126 8.40958 30.029 10.2932C27.9944 12.3278 25.2973 13.4333 24.5186 12.6546ZM27.6676 15.8036L26.7622 14.8973C27.5346 14.6834 28.2576 14.3517 28.9537 13.9406L30.4671 15.454C29.1393 16.122 28.0608 16.1968 27.6676 15.8036ZM33.1781 13.442C32.9035 13.7159 32.629 13.9658 32.3559 14.1937L30.786 12.6241C31.0643 12.3852 31.3374 12.133 31.6033 11.8671C31.8688 11.6016 32.1214 11.3285 32.3602 11.0501L33.9284 12.6174C33.6939 12.8995 33.4437 13.1764 33.1781 13.442ZM35.5566 9.84554C35.4618 10.132 35.3362 10.4274 35.1855 10.7272L33.6768 9.21845C34.0786 8.53744 34.4216 7.79757 34.6341 7.0261L35.5395 7.93151C35.8424 8.23505 35.8491 8.96826 35.5566 9.84554Z" fill="#524193"/>
</g>
<defs>
<clipPath id="clip0">
<rect width="38" height="38" fill="white"/>
</clipPath>
</defs>
</svg>
