<svg width="38" height="21" viewBox="0 0 38 21" fill="none" xmlns="http://www.w3.org/2000/svg">
<path d="M8.21399 21C5.652 21 3.63762 20.0481 2.17084 18.1442C0.723613 16.2019 0 13.6538 0 10.5C0 7.34616 0.723613 4.80769 2.17084 2.88462C3.63762 0.961538 5.652 0 8.21399 0C10.8151 0 12.8295 0.961538 14.2571 2.88462C15.7044 4.80769 16.428 7.34616 16.428 10.5C16.428 13.6538 15.7044 16.2019 14.2571 18.1442C12.8295 20.0481 10.8151 21 8.21399 21ZM12.409 10.5C12.409 8.34616 12.0472 6.70192 11.3236 5.56731C10.6195 4.43269 9.58298 3.86538 8.21399 3.86538C6.84499 3.86538 5.80846 4.43269 5.10441 5.56731C4.40035 6.70192 4.04832 8.34616 4.04832 10.5C4.04832 12.6538 4.40035 14.2981 5.10441 15.4327C5.80846 16.5481 6.84499 17.1058 8.21399 17.1058C9.58298 17.1058 10.6195 16.5385 11.3236 15.4038C12.0472 14.2692 12.409 12.6346 12.409 10.5Z" fill="#524193"/>
<path d="M26.6764 8.16346C25.7181 9.06731 24.5447 9.51923 23.1562 9.51923C21.748 9.51923 20.5648 9.05769 19.6065 8.13462C18.6678 7.21154 18.1984 6.08654 18.1984 4.75962C18.1984 3.43269 18.6678 2.30769 19.6065 1.38462C20.5844 0.461539 21.7676 0 23.1562 0C24.5643 0 25.7377 0.461539 26.6764 1.38462C27.6152 2.26923 28.0845 3.39423 28.0845 4.75962C28.0845 6.10577 27.6152 7.24039 26.6764 8.16346ZM22.0414 18.5481L20.2813 17.5385L33.6583 2.91346L35.4478 3.89423L22.0414 18.5481ZM21.8067 6.08654C22.1587 6.43269 22.5988 6.60577 23.1268 6.60577C23.6549 6.60577 24.0949 6.43269 24.4469 6.08654C24.799 5.72115 24.975 5.27885 24.975 4.75962C24.975 4.24038 24.799 3.80769 24.4469 3.46154C24.0949 3.11538 23.6549 2.94231 23.1268 2.94231C22.5988 2.94231 22.1587 3.11538 21.8067 3.46154C21.4742 3.80769 21.308 4.24038 21.308 4.75962C21.308 5.27885 21.4742 5.72115 21.8067 6.08654ZM38 16.1827C38 17.5096 37.5306 18.6346 36.5919 19.5577C35.6531 20.4808 34.4797 20.9423 33.0716 20.9423C31.6635 20.9423 30.4901 20.4808 29.5513 19.5577C28.6126 18.6346 28.1432 17.5096 28.1432 16.1827C28.1432 14.8558 28.6126 13.7308 29.5513 12.8077C30.4901 11.8846 31.6635 11.4231 33.0716 11.4231C34.4797 11.4231 35.6531 11.8846 36.5919 12.8077C37.5306 13.7308 38 14.8558 38 16.1827ZM34.3624 17.5096C34.7144 17.1442 34.8904 16.7019 34.8904 16.1827C34.8904 15.6635 34.7144 15.2308 34.3624 14.8846C34.0299 14.5192 33.5997 14.3365 33.0716 14.3365C32.5436 14.3365 32.1035 14.5192 31.7515 14.8846C31.419 15.2308 31.2528 15.6635 31.2528 16.1827C31.2528 16.7019 31.419 17.1442 31.7515 17.5096C32.1035 17.8558 32.5436 18.0288 33.0716 18.0288C33.5997 18.0288 34.0299 17.8558 34.3624 17.5096Z" fill="#524193"/>
</svg>
