<svg width="38" height="23" viewBox="0 0 38 23" fill="none" xmlns="http://www.w3.org/2000/svg">
<path d="M9.01784 23C6.20514 23 3.99362 21.9574 2.38329 19.8723C0.794429 17.745 0 14.9542 0 11.5C0 8.04579 0.794429 5.26557 2.38329 3.15934C3.99362 1.05311 6.20514 0 9.01784 0C11.8735 0 14.085 1.05311 15.6524 3.15934C17.2413 5.26557 18.0357 8.04579 18.0357 11.5C18.0357 14.9542 17.2413 17.745 15.6524 19.8723C14.085 21.9574 11.8735 23 9.01784 23ZM13.6234 11.5C13.6234 9.14103 13.2262 7.3402 12.4317 6.09753C11.6588 4.85485 10.5208 4.23352 9.01784 4.23352C7.51487 4.23352 6.3769 4.85485 5.60395 6.09753C4.83099 7.3402 4.44451 9.14103 4.44451 11.5C4.44451 13.859 4.83099 15.6598 5.60395 16.9025C6.3769 18.1241 7.51487 18.7349 9.01784 18.7349C10.5208 18.7349 11.6588 18.1136 12.4317 16.8709C13.2262 15.6282 13.6234 13.8379 13.6234 11.5Z" fill="#524193"/>
<path d="M30.3992 14.8805H26.4056V16.6181H33.5877V19.3984H26.4056V22.5577H21.9933V19.3984H19.5778V16.6181H21.9933V14.8805H19.5778V11.0577H21.9933V0.442308H30.3992C32.5249 0.442308 34.3177 1.15842 35.7777 2.59066C37.2592 4.02289 38 5.75 38 7.77198C38 9.79396 37.27 11.4895 35.81 12.8585C34.3714 14.2065 32.5678 14.8805 30.3992 14.8805ZM30.3992 4.51786H26.4056V11.0577H30.3992C31.301 11.0577 32.0525 10.7418 32.6537 10.1099C33.2764 9.47802 33.5877 8.69872 33.5877 7.77198C33.5877 6.84524 33.2764 6.07647 32.6537 5.46566C32.0525 4.83379 31.301 4.51786 30.3992 4.51786Z" fill="#524193"/>
</svg>
